# xmcd
#
# Track frame offsets: 
#        150
#        15165
#        37251
#        55398
#        72555
#        96267
#        112401
#        123072
#        140421
#        154809
#        174747
#        202082
#        235178
#
# Disc length: 3326 seconds
#
# Revision: 2
# Processed by: cddbd v1.5.2PL0 Copyright (c) Steve Scherf et al.
# Submitted via: ExactAudioCopy v0.99pb5
#
DISCID=bf0cfc0d
DTITLE=Vari - Wolf Scatto Terzo
DYEAR=2006
DGENRE=Jazz
TTITLE0=Benvegnù - Suggestionabili
TTITLE1=Kama - Ostello comunale
TTITLE2=Gravity and Henry - Trigger Response
TTITLE3=Oz - Asse Verticale
TTITLE4=Daniele Di Bonaventura - La mia terra
TTITLE5=Llubjan - September '94
TTITLE6=Zoldester - Dietro i se
TTITLE7=Numero 6 - Automatici
TTITLE8=Sur - Stu
TTITLE9=Vanessa Peters - Burning cross
TTITLE10=Asicomolasflores - Danza para Estrela Radiosa
TTITLE11=Steve Gut - My Conception
TTITLE12=Belfagor - Doctor Blow
EXTD=YEAR: 2006
EXTT0=
EXTT1=
EXTT2=
EXTT3=
EXTT4=
EXTT5=
EXTT6=
EXTT7=
EXTT8=
EXTT9=
EXTT10=
EXTT11=
EXTT12=
PLAYORDER=
